{"accessors" : [{"bufferView" : 0, "byteOffset" : 0, "componentType" : 5123, "count" : 14382, "type" : "SCALAR", "max" : [2401], "min" : [0]}, {"bufferView" : 1, "byteOffset" : 0, "componentType" : 5126, "count" : 2402, "type" : "VEC3", "max" : [10.186318397521973, 0.3764060139656067, 3.287106990814209], "min" : [-10.186322212219238, 0.2869189977645874, -16.944854736328125], "name" : "POSITION"}, {"bufferView" : 0, "byteOffset" : 28764, "componentType" : 5123, "count" : 41280, "type" : "SCALAR", "max" : [6881], "min" : [0]}, {"bufferView" : 2, "byteOffset" : 0, "componentType" : 5126, "count" : 6882, "type" : "VEC3", "max" : [10.186318397521973, 0.3869189918041229, 3.287106990814209], "min" : [-10.186322212219238, 0.2869189977645874, -16.944854736328125], "name" : "POSITION"}], "asset" : {"generator" : "Aspose.3D 24.6.0", "version" : "2.0"}, "buffers" : [{"uri" : "buffer.bin", "byteLength" : 222744}], "bufferViews" : [{"buffer" : 0, "byteOffset" : 0, "byteLength" : 111324, "target" : 34963}, {"buffer" : 0, "byteOffset" : 111328, "byteLength" : 28824, "byteStride" : 12, "target" : 34962}, {"buffer" : 0, "byteOffset" : 140156, "byteLength" : 82584, "byteStride" : 12, "target" : 34962}], "meshes" : [{"primitives" : [{"attributes" : {"POSITION" : 1}, "indices" : 0, "mode" : 4}], "name" : ""}, {"primitives" : [{"attributes" : {"POSITION" : 3}, "indices" : 2, "mode" : 4}], "name" : ""}], "nodes" : [{"mesh" : 0, "name" : "juhf3_handle"}, {"mesh" : 1, "name" : "juhf3_fan"}], "scene" : 0, "scenes" : [{"nodes" : [0, 1]}]}